STARTFONT 2.1
FONT -FontForge-Zen Loop-Book-R-Normal--36-360-72-72-P-114-ISO10646-1
SIZE 36 72 72
FONTBOUNDINGBOX 30 39 -4 -9
COMMENT "Generated by fontforge, http://fontforge.sourceforge.net"
COMMENT "Copyright 2021 The Zen-Loop Project Authors (https://github.com/googlefonts/zen-loop)"
STARTPROPERTIES 39
FOUNDRY "FontForge"
FAMILY_NAME "Zen Loop"
WEIGHT_NAME "Book"
SLANT "R"
SETWIDTH_NAME "Normal"
ADD_STYLE_NAME ""
PIXEL_SIZE 36
POINT_SIZE 360
RESOLUTION_X 72
RESOLUTION_Y 72
SPACING "P"
AVERAGE_WIDTH 114
CHARSET_REGISTRY "ISO10646"
CHARSET_ENCODING "1"
FONTNAME_REGISTRY ""
CHARSET_COLLECTIONS "ISO10646-1"
FONT_NAME "ZenLoop-Regular"
FACE_NAME "Zen Loop Regular"
COPYRIGHT "Copyright 2021 The Zen-Loop Project Authors (https://github.com/googlefonts/zen-loop)"
FONT_VERSION "1.000; ttfautohint (v1.8.3)"
FONT_ASCENT 29
FONT_DESCENT 7
UNDERLINE_POSITION -5
UNDERLINE_THICKNESS 1
X_HEIGHT 16
CAP_HEIGHT 24
RAW_ASCENT 800
RAW_DESCENT 200
NORM_SPACE 9
RELATIVE_WEIGHT 40
RELATIVE_SETWIDTH 50
SUPERSCRIPT_X 0
SUPERSCRIPT_Y 12
SUPERSCRIPT_SIZE 21
SUBSCRIPT_X 0
SUBSCRIPT_Y 2
SUBSCRIPT_SIZE 21
AVG_LOWERCASE_WIDTH 102
AVG_UPPERCASE_WIDTH 136
ENDPROPERTIES
CHARS 248
STARTCHAR CR
ENCODING 13
SWIDTH 600 0
DWIDTH 22 0
BBX 1 1 0 0
BITMAP
00
ENDCHAR
STARTCHAR space
ENCODING 32
SWIDTH 240 0
DWIDTH 9 0
BBX 1 1 0 0
BITMAP
00
ENDCHAR
STARTCHAR exclam
ENCODING 33
SWIDTH 141 0
DWIDTH 5 0
BBX 1 25 2 0
BITMAP
80
80
80
80
80
80
80
80
80
80
80
80
80
80
80
80
80
80
00
00
00
80
80
80
80
ENDCHAR
STARTCHAR quotedbl
ENCODING 34
SWIDTH 195 0
DWIDTH 7 0
BBX 3 7 2 18
BITMAP
A0
A0
A0
A0
A0
A0
A0
ENDCHAR
STARTCHAR numbersign
ENCODING 35
SWIDTH 454 0
DWIDTH 16 0
BBX 15 25 1 0
BITMAP
0208
0208
0410
0410
0410
0410
0410
0410
7FFE
0820
0820
0820
0820
1020
1040
1040
1040
FFF8
1040
2040
2080
2080
2080
2080
4080
ENDCHAR
STARTCHAR dollar
ENCODING 36
SWIDTH 356 0
DWIDTH 13 0
BBX 11 31 1 -3
BITMAP
0400
0400
0400
1F00
2480
4440
4440
8400
8400
4400
4400
4400
2400
1400
0C00
0600
0500
0480
0440
0420
0420
8420
8420
8440
4440
2480
1F00
0400
0400
0400
0400
ENDCHAR
STARTCHAR percent
ENCODING 37
SWIDTH 470 0
DWIDTH 17 0
BBX 14 25 1 0
BITMAP
3808
4408
4210
4210
8220
8220
8240
8240
4240
4280
2480
1900
0100
0130
0248
0284
0484
0484
0904
0904
0884
1084
1084
2048
2070
ENDCHAR
STARTCHAR ampersand
ENCODING 38
SWIDTH 520 0
DWIDTH 19 0
BBX 17 25 1 0
BITMAP
03C000
024000
042000
042000
042000
042000
044000
044000
048000
050000
020000
060000
0A0600
110900
211000
411000
409000
40A000
806000
806000
806000
405000
408800
210400
1E0380
ENDCHAR
STARTCHAR quotesingle
ENCODING 39
SWIDTH 121 0
DWIDTH 4 0
BBX 1 7 2 18
BITMAP
80
80
80
80
80
80
80
ENDCHAR
STARTCHAR parenleft
ENCODING 40
SWIDTH 233 0
DWIDTH 8 0
BBX 4 29 3 -2
BITMAP
10
10
20
20
40
40
40
80
80
80
80
80
80
80
80
80
80
80
80
80
80
80
40
40
40
20
20
10
10
ENDCHAR
STARTCHAR parenright
ENCODING 41
SWIDTH 233 0
DWIDTH 8 0
BBX 5 29 1 -2
BITMAP
80
40
40
20
20
20
10
10
10
10
08
08
08
08
08
08
08
08
08
08
10
10
10
20
20
20
40
40
80
ENDCHAR
STARTCHAR asterisk
ENCODING 42
SWIDTH 313 0
DWIDTH 11 0
BBX 9 8 1 17
BITMAP
0800
0800
0800
EB80
1C00
1400
1200
2200
ENDCHAR
STARTCHAR plus
ENCODING 43
SWIDTH 577 0
DWIDTH 21 0
BBX 17 17 2 0
BITMAP
008000
008000
008000
008000
008000
008000
008000
008000
FFFF80
008000
008000
008000
008000
008000
008000
008000
008000
ENDCHAR
STARTCHAR comma
ENCODING 44
SWIDTH 145 0
DWIDTH 5 0
BBX 2 6 1 -3
BITMAP
40
40
40
40
40
80
ENDCHAR
STARTCHAR hyphen
ENCODING 45
SWIDTH 286 0
DWIDTH 10 0
BBX 8 1 1 10
BITMAP
FF
ENDCHAR
STARTCHAR period
ENCODING 46
SWIDTH 181 0
DWIDTH 7 0
BBX 1 4 3 0
BITMAP
80
80
80
80
ENDCHAR
STARTCHAR slash
ENCODING 47
SWIDTH 292 0
DWIDTH 11 0
BBX 10 29 0 -2
BITMAP
0040
0040
0040
0080
0080
0080
0100
0100
0100
0200
0200
0200
0400
0400
0400
0800
0800
0800
1000
1000
1000
2000
2000
2000
4000
4000
4000
8000
8000
ENDCHAR
STARTCHAR zero
ENCODING 48
SWIDTH 378 0
DWIDTH 14 0
BBX 11 25 1 0
BITMAP
0F00
1080
2080
2040
4040
4020
4020
4020
4020
8020
8020
8020
8020
8020
8020
8020
4020
4020
4020
4020
4040
2040
2080
1080
0F00
ENDCHAR
STARTCHAR one
ENCODING 49
SWIDTH 303 0
DWIDTH 11 0
BBX 9 25 1 0
BITMAP
1800
6800
8800
0800
0800
0800
0800
0800
0800
0800
0800
0800
0800
0800
0800
0800
0800
0800
0800
0800
0800
0800
0800
0800
FF80
ENDCHAR
STARTCHAR two
ENCODING 50
SWIDTH 343 0
DWIDTH 12 0
BBX 10 25 1 0
BITMAP
1E00
2180
4080
8040
0040
0040
0040
0040
0040
0080
0080
0100
0100
0200
0400
0C00
0800
1000
2000
2000
4000
8000
8000
8000
FFC0
ENDCHAR
STARTCHAR three
ENCODING 51
SWIDTH 377 0
DWIDTH 14 0
BBX 11 25 1 0
BITMAP
0F00
3080
2080
4040
0040
0040
0040
0040
0040
0080
1E80
2380
3C40
0040
0020
0020
0020
0020
0020
0020
0020
0040
8040
4080
3F00
ENDCHAR
STARTCHAR four
ENCODING 52
SWIDTH 389 0
DWIDTH 14 0
BBX 12 25 1 0
BITMAP
0080
0100
0100
0200
0200
0200
0400
0400
0880
0880
1080
1080
1080
2080
2080
4080
4080
8080
FFF0
0080
0080
0080
0080
0080
0080
ENDCHAR
STARTCHAR five
ENCODING 53
SWIDTH 372 0
DWIDTH 13 0
BBX 11 26 1 0
BITMAP
0020
1F80
1000
1000
1000
1000
1000
1000
1000
1000
1000
1E00
3180
5040
9040
A020
6020
0020
0020
0020
0020
0020
0040
8040
4080
3F00
ENDCHAR
STARTCHAR six
ENCODING 54
SWIDTH 360 0
DWIDTH 13 0
BBX 11 25 1 0
BITMAP
0100
0200
0400
0800
0800
1000
2000
2000
2000
4000
4000
4F00
5080
A040
8020
8020
8020
8020
8020
4020
4020
4040
2040
2080
1F00
ENDCHAR
STARTCHAR seven
ENCODING 55
SWIDTH 321 0
DWIDTH 12 0
BBX 9 25 1 0
BITMAP
FF80
0080
0080
0100
0100
0100
0200
0200
0200
0400
0400
0400
0800
0800
0800
1000
1000
1000
1000
2000
2000
2000
4000
4000
4000
ENDCHAR
STARTCHAR eight
ENCODING 56
SWIDTH 377 0
DWIDTH 14 0
BBX 11 25 1 0
BITMAP
1F00
2080
4040
4020
4020
4020
4020
4040
2040
2080
1100
0E00
0B00
1080
2040
4040
4020
8020
8020
8020
8020
4020
4040
2080
1F00
ENDCHAR
STARTCHAR nine
ENCODING 57
SWIDTH 360 0
DWIDTH 13 0
BBX 11 25 1 0
BITMAP
1E00
2180
4080
4040
8040
8040
8040
8020
8020
8020
8020
40C0
2140
1E40
0040
0040
0080
0080
0100
0100
0200
0200
0400
0800
1000
ENDCHAR
STARTCHAR colon
ENCODING 58
SWIDTH 181 0
DWIDTH 7 0
BBX 1 18 3 0
BITMAP
80
80
80
80
00
00
00
00
00
00
00
00
00
00
80
80
80
80
ENDCHAR
STARTCHAR semicolon
ENCODING 59
SWIDTH 165 0
DWIDTH 6 0
BBX 2 21 1 -3
BITMAP
40
40
40
40
00
00
00
00
00
00
00
00
00
00
00
40
40
40
40
40
80
ENDCHAR
STARTCHAR less
ENCODING 60
SWIDTH 482 0
DWIDTH 17 0
BBX 14 14 2 2
BITMAP
0004
0018
0060
0180
0600
1800
6000
8000
6000
1800
0600
0180
0060
001C
ENDCHAR
STARTCHAR equal
ENCODING 61
SWIDTH 577 0
DWIDTH 21 0
BBX 17 7 2 5
BITMAP
FFFF80
000000
000000
000000
000000
000000
FFFF80
ENDCHAR
STARTCHAR greater
ENCODING 62
SWIDTH 482 0
DWIDTH 17 0
BBX 14 14 2 1
BITMAP
C000
3000
0C00
0300
00C0
0030
000C
0030
00C0
0300
0C00
1000
6000
8000
ENDCHAR
STARTCHAR question
ENCODING 63
SWIDTH 300 0
DWIDTH 11 0
BBX 8 25 1 0
BITMAP
3C
42
81
01
01
01
01
02
02
04
08
08
10
10
20
20
10
10
00
00
00
10
10
10
10
ENDCHAR
STARTCHAR at
ENCODING 64
SWIDTH 748 0
DWIDTH 27 0
BBX 24 25 1 0
BITMAP
007F80
018060
060010
08070C
100904
201082
201081
402081
404081
404001
804001
808601
808601
808A01
810A01
411201
411402
411804
21080C
211C10
10E3E0
080004
060008
018030
007FC0
ENDCHAR
STARTCHAR A
ENCODING 65
SWIDTH 414 0
DWIDTH 15 0
BBX 13 25 1 0
BITMAP
0200
0200
0600
0500
0500
0500
0880
0880
0880
0880
1040
1040
1040
2040
2020
3FE0
2020
4020
4010
4010
4010
8008
8008
8008
8008
ENDCHAR
STARTCHAR B
ENCODING 66
SWIDTH 375 0
DWIDTH 14 0
BBX 10 25 2 0
BITMAP
FC00
8200
8100
8080
8080
8080
8080
8080
8080
8080
BC80
A280
9100
8E80
8080
8080
8040
8040
8040
8040
8080
8080
8080
8300
FC00
ENDCHAR
STARTCHAR C
ENCODING 67
SWIDTH 366 0
DWIDTH 13 0
BBX 11 25 1 0
BITMAP
07C0
1820
1000
2000
2000
4000
4000
4000
4000
8000
8000
8000
8000
8000
8000
8000
4000
4000
4000
4000
2000
2000
1000
1820
07C0
ENDCHAR
STARTCHAR D
ENCODING 68
SWIDTH 396 0
DWIDTH 14 0
BBX 11 25 2 0
BITMAP
FE00
8100
8080
8080
8040
8040
8040
8020
8020
8020
8020
8020
8020
8020
8020
8020
8020
8020
8040
8040
8040
8080
8080
8100
FE00
ENDCHAR
STARTCHAR E
ENCODING 69
SWIDTH 309 0
DWIDTH 11 0
BBX 8 25 2 0
BITMAP
FF
80
80
80
80
80
80
80
80
80
80
FE
80
80
80
80
80
80
80
80
80
80
80
80
FF
ENDCHAR
STARTCHAR F
ENCODING 70
SWIDTH 299 0
DWIDTH 11 0
BBX 8 25 2 0
BITMAP
FF
80
80
80
80
80
80
80
80
80
80
FE
80
80
80
80
80
80
80
80
80
80
80
80
80
ENDCHAR
STARTCHAR G
ENCODING 71
SWIDTH 382 0
DWIDTH 14 0
BBX 11 25 1 0
BITMAP
07C0
1820
1000
2000
2000
4000
4000
4000
4000
8000
8000
8000
8000
8000
83E0
8020
4020
4020
4020
4020
4020
2020
1020
1820
0780
ENDCHAR
STARTCHAR H
ENCODING 72
SWIDTH 425 0
DWIDTH 15 0
BBX 11 25 2 0
BITMAP
8020
8020
8020
8020
8020
8020
8020
8020
8020
8020
8020
FFE0
8020
8020
8020
8020
8020
8020
8020
8020
8020
8020
8020
8020
8020
ENDCHAR
STARTCHAR I
ENCODING 73
SWIDTH 141 0
DWIDTH 5 0
BBX 1 25 2 0
BITMAP
80
80
80
80
80
80
80
80
80
80
80
80
80
80
80
80
80
80
80
80
80
80
80
80
80
ENDCHAR
STARTCHAR J
ENCODING 74
SWIDTH 142 0
DWIDTH 5 0
BBX 6 32 -3 -7
BITMAP
04
04
04
04
04
04
04
04
04
04
04
04
04
04
04
04
04
04
04
04
04
04
04
04
04
04
04
04
04
08
10
E0
ENDCHAR
STARTCHAR K
ENCODING 75
SWIDTH 401 0
DWIDTH 14 0
BBX 13 25 0 0
BITMAP
1008
1010
1020
1020
1040
1040
1040
1080
1080
1100
7F00
9780
F840
1040
1020
1020
1020
1010
1010
1010
1010
1010
1008
1008
1008
ENDCHAR
STARTCHAR L
ENCODING 76
SWIDTH 347 0
DWIDTH 12 0
BBX 9 25 2 0
BITMAP
8000
8000
8000
8000
8000
8000
8000
8000
8000
8000
8000
8000
8000
8000
8000
8000
8000
8000
8000
8000
8000
8000
8000
8000
FF80
ENDCHAR
STARTCHAR M
ENCODING 77
SWIDTH 534 0
DWIDTH 19 0
BBX 16 25 2 0
BITMAP
4004
600C
5814
4424
42C4
4184
4184
4282
4282
4242
8282
8282
8102
8102
8182
8282
8282
8282
8282
8102
8002
8001
8001
8001
8001
ENDCHAR
STARTCHAR N
ENCODING 78
SWIDTH 422 0
DWIDTH 15 0
BBX 11 25 2 0
BITMAP
8020
8020
C020
C020
A020
A020
9020
9020
9020
8820
8820
8420
8420
8220
8220
8220
8120
8120
80A0
80A0
80A0
8060
8060
8020
8020
ENDCHAR
STARTCHAR O
ENCODING 79
SWIDTH 446 0
DWIDTH 16 0
BBX 14 25 1 0
BITMAP
0780
1860
1020
2010
2008
4008
4008
4008
4008
8004
8004
8004
8004
8004
8004
8004
4008
4008
4008
4008
2008
2010
1020
1860
0780
ENDCHAR
STARTCHAR P
ENCODING 80
SWIDTH 341 0
DWIDTH 12 0
BBX 9 25 2 0
BITMAP
FE00
8100
8100
8080
8080
8080
8080
8080
8080
8080
8100
8200
F800
8000
8000
8000
8000
8000
8000
8000
8000
8000
8000
8000
8000
ENDCHAR
STARTCHAR Q
ENCODING 81
SWIDTH 446 0
DWIDTH 16 0
BBX 14 34 1 -9
BITMAP
0780
1860
1020
2010
2008
4008
4008
4008
4008
8004
8004
8004
8004
8004
8004
4004
6008
5038
4848
4488
2308
2310
12A0
1CE0
0780
0480
0280
0300
0100
0300
0280
0280
0280
0300
ENDCHAR
STARTCHAR R
ENCODING 82
SWIDTH 380 0
DWIDTH 14 0
BBX 13 25 0 0
BITMAP
3F80
2040
2020
2020
2020
2010
2010
2010
2020
2020
7C20
A240
E180
3E80
2040
2040
2020
2020
2020
2010
2010
2010
2010
2008
2008
ENDCHAR
STARTCHAR S
ENCODING 83
SWIDTH 356 0
DWIDTH 13 0
BBX 11 25 1 0
BITMAP
1F00
2080
4040
4040
8000
8000
4000
4000
4000
2000
1000
0800
0400
0300
0180
0080
0040
0020
0020
0020
8020
8020
4040
2080
1F00
ENDCHAR
STARTCHAR T
ENCODING 84
SWIDTH 377 0
DWIDTH 14 0
BBX 13 25 0 0
BITMAP
FFF8
0200
0200
0200
0200
0200
0200
0200
0200
0200
0200
0200
0200
0200
0200
0200
0200
0200
0200
0200
0200
0200
0200
0200
0200
ENDCHAR
STARTCHAR U
ENCODING 85
SWIDTH 412 0
DWIDTH 15 0
BBX 11 25 2 0
BITMAP
8020
8020
8020
8020
8020
8020
8020
8020
8020
8020
8020
8020
8020
8020
8020
8020
8020
8020
8020
8020
8020
8020
8040
60C0
1F00
ENDCHAR
STARTCHAR V
ENCODING 86
SWIDTH 384 0
DWIDTH 14 0
BBX 12 25 1 0
BITMAP
8010
8010
8010
8010
8020
4020
4020
4020
4040
2040
2040
2040
2080
1080
1080
1080
1100
0900
0900
0900
0A00
0600
0600
0600
0400
ENDCHAR
STARTCHAR W
ENCODING 87
SWIDTH 534 0
DWIDTH 19 0
BBX 16 25 2 0
BITMAP
8001
8001
8001
8001
8002
8002
8002
8002
8182
8282
8282
8282
8282
8282
8282
4102
4102
4182
4284
4444
4424
4824
5014
600C
4004
ENDCHAR
STARTCHAR X
ENCODING 88
SWIDTH 318 0
DWIDTH 11 0
BBX 11 25 0 0
BITMAP
4040
4040
2040
2080
1080
1080
1100
0900
0A00
0A00
0600
0400
0400
0A00
0A00
0900
1100
1100
1080
2080
2040
4040
4040
4020
8020
ENDCHAR
STARTCHAR Y
ENCODING 89
SWIDTH 370 0
DWIDTH 13 0
BBX 13 25 0 0
BITMAP
8008
4008
4010
2010
2020
1020
1040
1040
0880
0880
0480
0500
0300
0200
0200
0200
0200
0200
0200
0200
0200
0200
0200
0200
0200
ENDCHAR
STARTCHAR Z
ENCODING 90
SWIDTH 309 0
DWIDTH 11 0
BBX 10 25 1 0
BITMAP
FF80
0080
0080
0100
0100
0200
0200
0200
0400
0400
0400
0800
0800
1000
1000
1000
2000
2000
2000
4000
4000
4000
8000
8000
FFC0
ENDCHAR
STARTCHAR bracketleft
ENCODING 91
SWIDTH 193 0
DWIDTH 7 0
BBX 5 29 2 -2
BITMAP
F8
80
80
80
80
80
80
80
80
80
80
80
80
80
80
80
80
80
80
80
80
80
80
80
80
80
80
80
F8
ENDCHAR
STARTCHAR backslash
ENCODING 92
SWIDTH 292 0
DWIDTH 11 0
BBX 10 29 0 -2
BITMAP
8000
8000
4000
4000
4000
2000
2000
2000
1000
1000
1000
0800
0800
0800
0400
0400
0400
0200
0200
0200
0100
0100
0100
0080
0080
0080
0040
0040
0040
ENDCHAR
STARTCHAR bracketright
ENCODING 93
SWIDTH 193 0
DWIDTH 7 0
BBX 5 29 0 -2
BITMAP
F8
08
08
08
08
08
08
08
08
08
08
08
08
08
08
08
08
08
08
08
08
08
08
08
08
08
08
08
F8
ENDCHAR
STARTCHAR asciicircum
ENCODING 94
SWIDTH 416 0
DWIDTH 15 0
BBX 13 14 1 11
BITMAP
0200
0200
0500
0500
0880
0880
1040
1040
2020
2020
4010
4010
8008
8008
ENDCHAR
STARTCHAR underscore
ENCODING 95
SWIDTH 556 0
DWIDTH 20 0
BBX 18 1 1 -1
BITMAP
FFFFC0
ENDCHAR
STARTCHAR grave
ENCODING 96
SWIDTH 201 0
DWIDTH 7 0
BBX 3 4 2 19
BITMAP
80
40
40
20
ENDCHAR
STARTCHAR a
ENCODING 97
SWIDTH 315 0
DWIDTH 11 0
BBX 9 17 1 0
BITMAP
1C00
2200
4100
0100
0100
0100
0100
0300
0D00
3100
4100
8100
8100
8100
8300
8500
7980
ENDCHAR
STARTCHAR b
ENCODING 98
SWIDTH 298 0
DWIDTH 11 0
BBX 7 25 2 0
BITMAP
80
80
80
80
80
80
80
80
B8
C4
84
82
82
82
82
82
82
82
82
82
82
82
84
C4
B8
ENDCHAR
STARTCHAR c
ENCODING 99
SWIDTH 275 0
DWIDTH 10 0
BBX 8 17 1 0
BITMAP
1C
22
41
41
40
40
80
80
80
80
80
40
40
41
41
22
1C
ENDCHAR
STARTCHAR d
ENCODING 100
SWIDTH 298 0
DWIDTH 11 0
BBX 8 25 1 0
BITMAP
01
01
01
01
01
01
01
01
1D
23
41
41
41
81
81
81
81
81
81
41
41
41
41
23
1D
ENDCHAR
STARTCHAR e
ENCODING 101
SWIDTH 285 0
DWIDTH 10 0
BBX 8 17 1 0
BITMAP
1C
22
41
41
41
41
7F
80
80
80
80
40
40
41
41
22
1C
ENDCHAR
STARTCHAR f
ENCODING 102
SWIDTH 178 0
DWIDTH 6 0
BBX 8 25 0 0
BITMAP
07
08
10
10
10
10
10
10
FC
10
10
10
10
10
10
10
10
10
10
10
10
10
10
10
10
ENDCHAR
STARTCHAR g
ENCODING 103
SWIDTH 302 0
DWIDTH 11 0
BBX 11 26 0 -7
BITMAP
0080
0100
0F00
1100
2080
2080
2080
2080
2080
2080
2080
2080
2080
1100
1E00
2000
2000
3000
0F00
40C0
8020
8020
8020
8020
4040
3F80
ENDCHAR
STARTCHAR h
ENCODING 104
SWIDTH 307 0
DWIDTH 11 0
BBX 7 25 2 0
BITMAP
80
80
80
80
80
80
80
80
BC
C2
82
82
82
82
82
82
82
82
82
82
82
82
82
82
82
ENDCHAR
STARTCHAR i
ENCODING 105
SWIDTH 141 0
DWIDTH 5 0
BBX 1 23 2 0
BITMAP
80
80
80
80
00
00
80
80
80
80
80
80
80
80
80
80
80
80
80
80
80
80
80
ENDCHAR
STARTCHAR j
ENCODING 106
SWIDTH 141 0
DWIDTH 5 0
BBX 6 30 -3 -7
BITMAP
04
04
04
04
00
00
04
04
04
04
04
04
04
04
04
04
04
04
04
04
04
04
04
04
04
04
04
08
18
E0
ENDCHAR
STARTCHAR k
ENCODING 107
SWIDTH 287 0
DWIDTH 10 0
BBX 8 25 2 0
BITMAP
80
80
80
80
80
80
80
80
82
82
84
88
90
90
B0
D0
C8
88
84
84
84
82
82
82
81
ENDCHAR
STARTCHAR l
ENCODING 108
SWIDTH 141 0
DWIDTH 5 0
BBX 1 25 2 0
BITMAP
80
80
80
80
80
80
80
80
80
80
80
80
80
80
80
80
80
80
80
80
80
80
80
80
80
ENDCHAR
STARTCHAR m
ENCODING 109
SWIDTH 407 0
DWIDTH 15 0
BBX 11 17 2 0
BITMAP
8020
E0E0
9120
8A20
8420
8420
8A20
8A20
8A20
8A20
8A20
8420
8020
8020
8020
8020
8020
ENDCHAR
STARTCHAR n
ENCODING 110
SWIDTH 307 0
DWIDTH 11 0
BBX 7 17 2 0
BITMAP
BC
C2
82
82
82
82
82
82
82
82
82
82
82
82
82
82
82
ENDCHAR
STARTCHAR o
ENCODING 111
SWIDTH 309 0
DWIDTH 11 0
BBX 9 17 1 0
BITMAP
1C00
2200
4100
4100
4100
4080
8080
8080
8080
8080
8080
4080
4100
4100
4100
2200
1C00
ENDCHAR
STARTCHAR p
ENCODING 112
SWIDTH 299 0
DWIDTH 11 0
BBX 9 26 0 -7
BITMAP
2000
2000
3E00
6100
A080
2080
2080
2080
2080
2080
2080
2080
2080
2080
2080
2080
2080
3100
2E00
2000
2000
2000
2000
2000
2000
2000
ENDCHAR
STARTCHAR q
ENCODING 113
SWIDTH 286 0
DWIDTH 10 0
BBX 9 24 1 -7
BITMAP
1D00
2300
4100
4100
4100
8100
8100
8100
8100
8100
8100
8100
4100
4100
4100
2300
1D00
0100
0100
0100
0100
0100
0100
0080
ENDCHAR
STARTCHAR r
ENCODING 114
SWIDTH 277 0
DWIDTH 10 0
BBX 7 17 2 0
BITMAP
BC
C2
82
82
82
80
80
80
80
80
80
80
80
80
80
80
80
ENDCHAR
STARTCHAR s
ENCODING 115
SWIDTH 257 0
DWIDTH 9 0
BBX 7 17 1 0
BITMAP
38
44
82
80
80
40
40
20
18
04
02
02
02
82
82
42
3C
ENDCHAR
STARTCHAR t
ENCODING 116
SWIDTH 207 0
DWIDTH 7 0
BBX 7 22 0 0
BITMAP
10
10
10
10
10
FE
10
10
10
10
10
10
10
10
10
10
10
10
10
10
10
0C
ENDCHAR
STARTCHAR u
ENCODING 117
SWIDTH 307 0
DWIDTH 11 0
BBX 7 17 2 0
BITMAP
82
82
82
82
82
82
82
82
82
82
82
82
82
82
82
86
7A
ENDCHAR
STARTCHAR v
ENCODING 118
SWIDTH 285 0
DWIDTH 10 0
BBX 9 17 1 0
BITMAP
8080
8100
8100
8100
4100
4200
4200
4200
2200
2400
2400
2400
1400
1800
1800
1800
0800
ENDCHAR
STARTCHAR w
ENCODING 119
SWIDTH 396 0
DWIDTH 14 0
BBX 12 17 1 0
BITMAP
8010
8010
8010
8010
8610
8610
8510
4510
4610
4620
4620
4620
4520
4920
50A0
6060
6020
ENDCHAR
STARTCHAR x
ENCODING 120
SWIDTH 244 0
DWIDTH 9 0
BBX 7 17 1 0
BITMAP
82
84
44
44
28
28
30
10
10
30
28
28
44
44
84
82
82
ENDCHAR
STARTCHAR y
ENCODING 121
SWIDTH 285 0
DWIDTH 10 0
BBX 10 24 0 -7
BITMAP
4040
4080
4080
4080
2080
2100
2100
2100
1100
1200
1200
1200
0A00
0C00
0C00
0C00
0400
0400
0800
0800
0800
1000
1000
E000
ENDCHAR
STARTCHAR z
ENCODING 122
SWIDTH 233 0
DWIDTH 8 0
BBX 7 17 1 0
BITMAP
FE
04
04
04
08
08
10
10
10
20
20
20
40
40
80
80
FE
ENDCHAR
STARTCHAR braceleft
ENCODING 123
SWIDTH 306 0
DWIDTH 11 0
BBX 10 29 1 -2
BITMAP
03C0
0400
0400
0400
0400
0400
0400
0400
0400
0400
0400
0400
0400
F400
8800
F400
0400
0400
0400
0400
0400
0400
0400
0400
0400
0400
0400
0400
03C0
ENDCHAR
STARTCHAR bar
ENCODING 124
SWIDTH 141 0
DWIDTH 5 0
BBX 1 29 2 -2
BITMAP
80
80
80
80
80
80
80
80
80
80
80
80
80
80
80
80
80
80
80
80
80
80
80
80
80
80
80
80
80
ENDCHAR
STARTCHAR braceright
ENCODING 125
SWIDTH 306 0
DWIDTH 11 0
BBX 10 29 0 -2
BITMAP
F000
0800
0800
0800
0800
0800
0800
0800
0800
0800
0800
0800
0800
0BC0
0440
0BC0
0800
0800
0800
0800
0800
0800
0800
0800
0800
0800
0800
0800
F000
ENDCHAR
STARTCHAR asciitilde
ENCODING 126
SWIDTH 433 0
DWIDTH 16 0
BBX 13 3 1 8
BITMAP
3808
4708
80F0
ENDCHAR
STARTCHAR uni00A0
ENCODING 160
SWIDTH 240 0
DWIDTH 9 0
BBX 1 1 0 0
BITMAP
00
ENDCHAR
STARTCHAR exclamdown
ENCODING 161
SWIDTH 141 0
DWIDTH 5 0
BBX 1 25 2 -5
BITMAP
80
80
80
80
00
00
00
80
80
80
80
80
80
80
80
80
80
80
80
80
80
80
80
80
80
ENDCHAR
STARTCHAR cent
ENCODING 162
SWIDTH 275 0
DWIDTH 10 0
BBX 8 23 1 -3
BITMAP
08
08
08
08
1C
2A
49
49
48
88
88
88
88
88
48
49
49
2A
3E
08
08
08
08
ENDCHAR
STARTCHAR sterling
ENCODING 163
SWIDTH 331 0
DWIDTH 12 0
BBX 10 25 1 0
BITMAP
1E00
6100
4080
8040
8000
8000
8000
8000
4000
4000
4000
2000
1000
FF00
1000
0800
0800
0800
1000
1000
1000
2000
4000
8000
FFC0
ENDCHAR
STARTCHAR currency
ENCODING 164
SWIDTH 506 0
DWIDTH 18 0
BBX 14 14 2 4
BITMAP
8004
4FC8
3030
2010
4008
4008
4008
4008
4008
2008
2010
3830
47C8
8004
ENDCHAR
STARTCHAR yen
ENCODING 165
SWIDTH 370 0
DWIDTH 13 0
BBX 13 25 0 0
BITMAP
8008
4008
4010
2010
2020
2020
1040
1040
0840
0880
0480
0500
0500
0200
0200
0200
3FE0
0200
0200
3FE0
0200
0200
0200
0200
0200
ENDCHAR
STARTCHAR brokenbar
ENCODING 166
SWIDTH 141 0
DWIDTH 5 0
BBX 1 29 2 -2
BITMAP
80
80
80
80
80
80
80
80
80
80
80
80
80
00
00
00
00
80
80
80
80
80
80
80
80
80
80
80
80
ENDCHAR
STARTCHAR section
ENCODING 167
SWIDTH 303 0
DWIDTH 11 0
BBX 9 30 1 -3
BITMAP
1C00
6300
8100
8080
8000
8000
8000
4000
2000
1000
0C00
3200
4100
4100
8080
8080
8100
4100
2200
1C00
0400
0200
0100
0080
0080
0080
8080
8100
4300
3C00
ENDCHAR
STARTCHAR dieresis
ENCODING 168
SWIDTH 241 0
DWIDTH 9 0
BBX 5 4 2 19
BITMAP
88
88
88
88
ENDCHAR
STARTCHAR copyright
ENCODING 169
SWIDTH 772 0
DWIDTH 28 0
BBX 25 25 1 0
BITMAP
007F0000
0180E000
06001000
08000C00
100E0600
20310200
20200100
40400100
40400080
40400080
80400080
80400080
80400080
80400080
80400080
40400080
40400080
40400100
20200100
20210200
101E0600
08000C00
06001000
01806000
007F8000
ENDCHAR
STARTCHAR ordfeminine
ENCODING 170
SWIDTH 231 0
DWIDTH 8 0
BBX 6 11 1 14
BITMAP
70
C8
08
08
08
38
48
88
88
98
64
ENDCHAR
STARTCHAR guillemotleft
ENCODING 171
SWIDTH 403 0
DWIDTH 15 0
BBX 12 14 1 3
BITMAP
0210
0420
0840
1840
1080
2100
4200
C600
2100
2180
1080
0840
0420
0210
ENDCHAR
STARTCHAR logicalnot
ENCODING 172
SWIDTH 557 0
DWIDTH 20 0
BBX 18 6 1 6
BITMAP
FFFFC0
000040
000040
000040
000040
000040
ENDCHAR
STARTCHAR uni00AD
ENCODING 173
SWIDTH 286 0
DWIDTH 10 0
BBX 8 1 1 10
BITMAP
FF
ENDCHAR
STARTCHAR registered
ENCODING 174
SWIDTH 772 0
DWIDTH 28 0
BBX 25 25 1 0
BITMAP
007F0000
0180E000
06001000
08000C00
10000600
203C0200
20220100
40210100
40210080
40210080
80210080
80220080
803E0080
80220080
80210080
40210080
40210080
40210100
20208100
20208200
10000600
08000C00
06001000
01806000
007F8000
ENDCHAR
STARTCHAR macron
ENCODING 175
SWIDTH 266 0
DWIDTH 10 0
BBX 5 1 2 21
BITMAP
F8
ENDCHAR
STARTCHAR degree
ENCODING 176
SWIDTH 350 0
DWIDTH 13 0
BBX 9 9 2 16
BITMAP
1C00
4300
8100
8080
8080
8080
8100
4300
1C00
ENDCHAR
STARTCHAR plusminus
ENCODING 177
SWIDTH 577 0
DWIDTH 21 0
BBX 17 17 2 0
BITMAP
008000
008000
008000
008000
008000
008000
008000
FFFF80
008000
008000
008000
008000
008000
008000
000000
000000
FFFF80
ENDCHAR
STARTCHAR uni00B2
ENCODING 178
SWIDTH 207 0
DWIDTH 7 0
BBX 5 11 1 14
BITMAP
70
48
88
08
08
10
20
20
40
80
F8
ENDCHAR
STARTCHAR uni00B3
ENCODING 179
SWIDTH 214 0
DWIDTH 8 0
BBX 5 11 1 14
BITMAP
70
48
08
08
30
08
08
08
08
88
70
ENDCHAR
STARTCHAR acute
ENCODING 180
SWIDTH 201 0
DWIDTH 7 0
BBX 3 4 2 19
BITMAP
20
40
40
80
ENDCHAR
STARTCHAR uni00B5
ENCODING 181
SWIDTH 335 0
DWIDTH 12 0
BBX 9 24 2 -7
BITMAP
8200
8200
8200
8200
8200
8200
8200
8200
8200
8200
8200
8200
8200
8200
8200
C600
B980
8000
8000
8000
8000
8000
8000
8000
ENDCHAR
STARTCHAR paragraph
ENCODING 182
SWIDTH 471 0
DWIDTH 17 0
BBX 13 25 2 0
BITMAP
1F88
3F88
7F88
7F88
FF88
FF88
FF88
FF88
FF88
7F88
7F88
3F88
0788
0088
0088
0088
0088
0088
0088
0088
0088
0088
0088
0088
0088
ENDCHAR
STARTCHAR periodcentered
ENCODING 183
SWIDTH 181 0
DWIDTH 7 0
BBX 1 4 3 9
BITMAP
80
80
80
80
ENDCHAR
STARTCHAR cedilla
ENCODING 184
SWIDTH 232 0
DWIDTH 8 0
BBX 4 6 2 -6
BITMAP
20
60
90
10
90
60
ENDCHAR
STARTCHAR uni00B9
ENCODING 185
SWIDTH 176 0
DWIDTH 6 0
BBX 5 11 1 14
BITMAP
60
A0
20
20
20
20
20
20
20
20
F8
ENDCHAR
STARTCHAR ordmasculine
ENCODING 186
SWIDTH 201 0
DWIDTH 7 0
BBX 5 11 1 14
BITMAP
70
48
88
88
88
88
88
88
88
48
70
ENDCHAR
STARTCHAR guillemotright
ENCODING 187
SWIDTH 403 0
DWIDTH 15 0
BBX 12 14 1 4
BITMAP
8600
4200
2100
1080
0840
0420
0210
0210
0420
0840
1080
2100
4200
8400
ENDCHAR
STARTCHAR onequarter
ENCODING 188
SWIDTH 527 0
DWIDTH 19 0
BBX 15 25 2 0
BITMAP
6004
A004
2008
2008
2010
2010
2020
2020
2040
2040
F880
0080
0100
0100
0208
0208
0210
0418
0428
0828
0848
107E
1008
2008
2008
ENDCHAR
STARTCHAR onehalf
ENCODING 189
SWIDTH 540 0
DWIDTH 19 0
BBX 16 25 2 0
BITMAP
6004
A004
2008
2008
2010
2010
2020
2020
2040
2040
F880
0080
0100
0100
020E
0212
0211
0402
0402
0804
0804
1008
1010
2010
203F
ENDCHAR
STARTCHAR threequarters
ENCODING 190
SWIDTH 517 0
DWIDTH 19 0
BBX 17 25 1 0
BITMAP
700200
480200
080400
080400
300800
080800
081000
081000
082000
882000
704000
004000
008000
008000
010400
010400
010800
020A00
021200
041200
041200
083F80
080200
100200
100200
ENDCHAR
STARTCHAR questiondown
ENCODING 191
SWIDTH 300 0
DWIDTH 11 0
BBX 8 25 2 -5
BITMAP
08
08
08
08
00
00
00
10
08
08
08
08
08
10
20
20
40
40
80
80
80
80
81
42
3C
ENDCHAR
STARTCHAR Agrave
ENCODING 192
SWIDTH 414 0
DWIDTH 15 0
BBX 13 30 1 0
BITMAP
0800
0400
0400
0200
0000
0200
0200
0600
0500
0500
0500
0880
0880
0880
0880
1040
1040
1040
2040
2020
3FE0
2020
4020
4010
4010
4010
8008
8008
8008
8008
ENDCHAR
STARTCHAR Aacute
ENCODING 193
SWIDTH 414 0
DWIDTH 15 0
BBX 13 30 1 0
BITMAP
0080
0100
0100
0200
0000
0200
0200
0600
0500
0500
0500
0880
0880
0880
0880
1040
1040
1040
2040
2020
3FE0
2020
4020
4010
4010
4010
8008
8008
8008
8008
ENDCHAR
STARTCHAR Acircumflex
ENCODING 194
SWIDTH 414 0
DWIDTH 15 0
BBX 13 30 1 0
BITMAP
0200
0500
0900
0880
0000
0200
0200
0600
0500
0500
0500
0880
0880
0880
0880
1040
1040
1040
2040
2020
3FE0
2020
4020
4010
4010
4010
8008
8008
8008
8008
ENDCHAR
STARTCHAR Atilde
ENCODING 195
SWIDTH 414 0
DWIDTH 15 0
BBX 13 29 1 0
BITMAP
0C40
1380
0000
0000
0200
0200
0600
0500
0500
0500
0880
0880
0880
0880
1040
1040
1040
2040
2020
3FE0
2020
4020
4010
4010
4010
8008
8008
8008
8008
ENDCHAR
STARTCHAR Adieresis
ENCODING 196
SWIDTH 414 0
DWIDTH 15 0
BBX 13 30 1 0
BITMAP
0880
0880
0880
0880
0000
0200
0200
0600
0500
0500
0500
0880
0880
0880
0880
1040
1040
1040
2040
2020
3FE0
2020
4020
4010
4010
4010
8008
8008
8008
8008
ENDCHAR
STARTCHAR Aring
ENCODING 197
SWIDTH 414 0
DWIDTH 15 0
BBX 13 30 1 0
BITMAP
0700
0900
0900
0700
0000
0200
0200
0600
0500
0500
0500
0880
0880
0880
0880
1040
1040
1040
2040
2020
3FE0
2020
4020
4010
4010
4010
8008
8008
8008
8008
ENDCHAR
STARTCHAR AE
ENCODING 198
SWIDTH 545 0
DWIDTH 20 0
BBX 18 25 0 0
BITMAP
001FC0
002000
002000
005000
005000
009000
009000
009000
011000
011000
021000
021FC0
021000
041000
041000
0FE000
081000
181000
101000
101000
201000
201000
401000
401000
801FC0
ENDCHAR
STARTCHAR Ccedilla
ENCODING 199
SWIDTH 366 0
DWIDTH 13 0
BBX 11 31 1 -6
BITMAP
07C0
1820
1000
2000
2000
4000
4000
4000
4000
8000
8000
8000
8000
8000
8000
8000
4000
4000
4000
4000
2000
2000
1000
1820
0780
0200
0300
0480
0080
0480
0300
ENDCHAR
STARTCHAR Egrave
ENCODING 200
SWIDTH 309 0
DWIDTH 11 0
BBX 8 30 2 0
BITMAP
20
20
10
10
00
FF
80
80
80
80
80
80
80
80
80
80
FE
80
80
80
80
80
80
80
80
80
80
80
80
FF
ENDCHAR
STARTCHAR Eacute
ENCODING 201
SWIDTH 309 0
DWIDTH 11 0
BBX 8 30 2 0
BITMAP
04
04
08
08
00
FF
80
80
80
80
80
80
80
80
80
80
FE
80
80
80
80
80
80
80
80
80
80
80
80
FF
ENDCHAR
STARTCHAR Ecircumflex
ENCODING 202
SWIDTH 309 0
DWIDTH 11 0
BBX 8 30 2 0
BITMAP
10
18
24
42
00
FF
80
80
80
80
80
80
80
80
80
80
FE
80
80
80
80
80
80
80
80
80
80
80
80
FF
ENDCHAR
STARTCHAR Edieresis
ENCODING 203
SWIDTH 309 0
DWIDTH 11 0
BBX 8 30 2 0
BITMAP
24
24
24
24
00
FF
80
80
80
80
80
80
80
80
80
80
FE
80
80
80
80
80
80
80
80
80
80
80
80
FF
ENDCHAR
STARTCHAR Igrave
ENCODING 204
SWIDTH 141 0
DWIDTH 5 0
BBX 3 30 0 0
BITMAP
80
40
40
20
00
20
20
20
20
20
20
20
20
20
20
20
20
20
20
20
20
20
20
20
20
20
20
20
20
20
ENDCHAR
STARTCHAR Iacute
ENCODING 205
SWIDTH 141 0
DWIDTH 5 0
BBX 3 30 2 0
BITMAP
20
40
40
80
00
80
80
80
80
80
80
80
80
80
80
80
80
80
80
80
80
80
80
80
80
80
80
80
80
80
ENDCHAR
STARTCHAR Icircumflex
ENCODING 206
SWIDTH 141 0
DWIDTH 5 0
BBX 5 30 0 0
BITMAP
20
50
48
88
00
20
20
20
20
20
20
20
20
20
20
20
20
20
20
20
20
20
20
20
20
20
20
20
20
20
ENDCHAR
STARTCHAR Idieresis
ENCODING 207
SWIDTH 141 0
DWIDTH 5 0
BBX 4 30 1 0
BITMAP
90
90
90
90
00
40
40
40
40
40
40
40
40
40
40
40
40
40
40
40
40
40
40
40
40
40
40
40
40
40
ENDCHAR
STARTCHAR Eth
ENCODING 208
SWIDTH 396 0
DWIDTH 14 0
BBX 13 25 0 0
BITMAP
3F80
2040
2020
2020
2010
2010
2010
2008
2008
2008
2008
2008
2008
FE08
2008
2008
2008
2008
2010
2010
2010
2020
2020
2040
3F80
ENDCHAR
STARTCHAR Ntilde
ENCODING 209
SWIDTH 422 0
DWIDTH 15 0
BBX 11 29 2 0
BITMAP
1C80
2300
0000
0000
8020
8020
C020
C020
A020
A020
9020
9020
9020
8820
8820
8420
8420
8220
8220
8220
8120
8120
80A0
80A0
80A0
8060
8060
8020
8020
ENDCHAR
STARTCHAR Ograve
ENCODING 210
SWIDTH 446 0
DWIDTH 16 0
BBX 14 30 1 0
BITMAP
0400
0400
0200
0200
0000
0780
1860
1020
2010
2008
4008
4008
4008
4008
8004
8004
8004
8004
8004
8004
8004
4008
4008
4008
4008
2008
2010
1020
1860
0780
ENDCHAR
STARTCHAR Oacute
ENCODING 211
SWIDTH 446 0
DWIDTH 16 0
BBX 14 30 1 0
BITMAP
0080
0080
0100
0100
0000
0780
1860
1020
2010
2008
4008
4008
4008
4008
8004
8004
8004
8004
8004
8004
8004
4008
4008
4008
4008
2008
2010
1020
1860
0780
ENDCHAR
STARTCHAR Ocircumflex
ENCODING 212
SWIDTH 446 0
DWIDTH 16 0
BBX 14 30 1 0
BITMAP
0100
0300
0480
0840
0000
0780
1860
1020
2010
2008
4008
4008
4008
4008
8004
8004
8004
8004
8004
8004
8004
4008
4008
4008
4008
2008
2010
1020
1860
0780
ENDCHAR
STARTCHAR Otilde
ENCODING 213
SWIDTH 446 0
DWIDTH 16 0
BBX 14 29 1 0
BITMAP
0640
0980
0000
0000
0780
1860
1020
2010
2008
4008
4008
4008
4008
8004
8004
8004
8004
8004
8004
8004
4008
4008
4008
4008
2008
2010
1020
1860
0780
ENDCHAR
STARTCHAR Odieresis
ENCODING 214
SWIDTH 446 0
DWIDTH 16 0
BBX 14 30 1 0
BITMAP
0480
0480
0480
0480
0000
0780
1860
1020
2010
2008
4008
4008
4008
4008
8004
8004
8004
8004
8004
8004
8004
4008
4008
4008
4008
2008
2010
1020
1860
0780
ENDCHAR
STARTCHAR multiply
ENCODING 215
SWIDTH 445 0
DWIDTH 16 0
BBX 12 13 2 2
BITMAP
8010
4020
2040
1080
0900
0600
0600
0900
1080
2040
4020
8010
0010
ENDCHAR
STARTCHAR Oslash
ENCODING 216
SWIDTH 446 0
DWIDTH 16 0
BBX 14 25 1 0
BITMAP
0788
1870
1030
2010
2028
4028
4048
4048
4088
8084
8104
8104
8104
8204
8204
8404
4408
4808
4808
5008
3008
2010
3020
3860
4780
ENDCHAR
STARTCHAR Ugrave
ENCODING 217
SWIDTH 412 0
DWIDTH 15 0
BBX 11 30 2 0
BITMAP
1000
0800
0800
0400
0000
8020
8020
8020
8020
8020
8020
8020
8020
8020
8020
8020
8020
8020
8020
8020
8020
8020
8020
8020
8020
8020
8020
8040
60C0
1F00
ENDCHAR
STARTCHAR Uacute
ENCODING 218
SWIDTH 412 0
DWIDTH 15 0
BBX 11 30 2 0
BITMAP
0100
0200
0200
0400
0000
8020
8020
8020
8020
8020
8020
8020
8020
8020
8020
8020
8020
8020
8020
8020
8020
8020
8020
8020
8020
8020
8020
8040
60C0
1F00
ENDCHAR
STARTCHAR Ucircumflex
ENCODING 219
SWIDTH 412 0
DWIDTH 15 0
BBX 11 30 2 0
BITMAP
0400
0A00
1200
1100
0000
8020
8020
8020
8020
8020
8020
8020
8020
8020
8020
8020
8020
8020
8020
8020
8020
8020
8020
8020
8020
8020
8020
8040
60C0
1F00
ENDCHAR
STARTCHAR Udieresis
ENCODING 220
SWIDTH 412 0
DWIDTH 15 0
BBX 11 30 2 0
BITMAP
1100
1100
1100
1100
0000
8020
8020
8020
8020
8020
8020
8020
8020
8020
8020
8020
8020
8020
8020
8020
8020
8020
8020
8020
8020
8020
8020
8040
60C0
1F00
ENDCHAR
STARTCHAR Yacute
ENCODING 221
SWIDTH 370 0
DWIDTH 13 0
BBX 13 30 0 0
BITMAP
0080
0080
0100
0200
0000
8008
4008
4010
2010
2020
1020
1040
1040
0880
0880
0480
0500
0300
0200
0200
0200
0200
0200
0200
0200
0200
0200
0200
0200
0200
ENDCHAR
STARTCHAR Thorn
ENCODING 222
SWIDTH 341 0
DWIDTH 12 0
BBX 9 25 2 0
BITMAP
8000
8000
8000
8000
8000
FC00
8300
8100
8080
8080
8080
8080
8080
8080
8080
8100
8200
F800
8000
8000
8000
8000
8000
8000
8000
ENDCHAR
STARTCHAR germandbls
ENCODING 223
SWIDTH 327 0
DWIDTH 12 0
BBX 8 25 2 0
BITMAP
38
44
82
82
82
82
82
82
82
82
9A
A4
BA
81
81
81
81
81
81
81
81
82
82
84
B8
ENDCHAR
STARTCHAR agrave
ENCODING 224
SWIDTH 315 0
DWIDTH 11 0
BBX 9 23 1 0
BITMAP
2000
1000
0800
0800
0000
0000
1C00
2200
4100
0100
0100
0100
0100
0300
0D00
3100
4100
8100
8100
8100
8300
8500
7980
ENDCHAR
STARTCHAR aacute
ENCODING 225
SWIDTH 315 0
DWIDTH 11 0
BBX 9 23 1 0
BITMAP
0200
0400
0400
0800
0000
0000
1C00
2200
4100
0100
0100
0100
0100
0300
0D00
3100
4100
8100
8100
8100
8300
8500
7980
ENDCHAR
STARTCHAR acircumflex
ENCODING 226
SWIDTH 315 0
DWIDTH 11 0
BBX 9 23 1 0
BITMAP
0800
1400
1200
2200
0000
0000
1C00
2200
4100
0100
0100
0100
0100
0300
0D00
3100
4100
8100
8100
8100
8300
8500
7980
ENDCHAR
STARTCHAR atilde
ENCODING 227
SWIDTH 315 0
DWIDTH 11 0
BBX 9 22 1 0
BITMAP
3900
4600
0000
0000
0000
1C00
2200
4100
0100
0100
0100
0100
0300
0D00
3100
4100
8100
8100
8100
8300
8500
7980
ENDCHAR
STARTCHAR adieresis
ENCODING 228
SWIDTH 315 0
DWIDTH 11 0
BBX 9 23 1 0
BITMAP
2200
2200
2200
2200
0000
0000
1C00
2200
4100
0100
0100
0100
0100
0300
0D00
3100
4100
8100
8100
8100
8300
8500
7980
ENDCHAR
STARTCHAR aring
ENCODING 229
SWIDTH 315 0
DWIDTH 11 0
BBX 9 24 1 0
BITMAP
1C00
2200
2200
2200
1C00
0000
0000
1C00
2200
4100
0100
0100
0100
0100
0300
0D00
3100
4100
8100
8100
8100
8300
8500
7980
ENDCHAR
STARTCHAR ae
ENCODING 230
SWIDTH 450 0
DWIDTH 16 0
BBX 14 17 1 0
BITMAP
3C70
4288
4284
0104
0104
0104
0104
07FC
3900
4100
8100
8100
8100
8104
8304
4488
3870
ENDCHAR
STARTCHAR ccedilla
ENCODING 231
SWIDTH 275 0
DWIDTH 10 0
BBX 8 23 1 -6
BITMAP
1C
22
41
41
40
40
80
80
80
80
80
40
40
41
41
22
1C
08
1C
12
02
22
1C
ENDCHAR
STARTCHAR egrave
ENCODING 232
SWIDTH 285 0
DWIDTH 10 0
BBX 8 23 1 0
BITMAP
20
10
08
08
00
00
1C
22
41
41
41
41
7F
80
80
80
80
40
40
41
41
22
1C
ENDCHAR
STARTCHAR eacute
ENCODING 233
SWIDTH 285 0
DWIDTH 10 0
BBX 8 23 1 0
BITMAP
02
04
04
08
00
00
1C
22
41
41
41
41
7F
80
80
80
80
40
40
41
41
22
1C
ENDCHAR
STARTCHAR ecircumflex
ENCODING 234
SWIDTH 285 0
DWIDTH 10 0
BBX 8 23 1 0
BITMAP
08
14
12
22
00
00
1C
22
41
41
41
41
7F
80
80
80
80
40
40
41
41
22
1C
ENDCHAR
STARTCHAR edieresis
ENCODING 235
SWIDTH 285 0
DWIDTH 10 0
BBX 8 23 1 0
BITMAP
22
22
22
22
00
00
1C
22
41
41
41
41
7F
80
80
80
80
40
40
41
41
22
1C
ENDCHAR
STARTCHAR igrave
ENCODING 236
SWIDTH 141 0
DWIDTH 5 0
BBX 3 23 0 0
BITMAP
80
40
20
20
00
00
20
20
20
20
20
20
20
20
20
20
20
20
20
20
20
20
20
ENDCHAR
STARTCHAR iacute
ENCODING 237
SWIDTH 141 0
DWIDTH 5 0
BBX 3 23 2 0
BITMAP
20
40
40
80
00
00
80
80
80
80
80
80
80
80
80
80
80
80
80
80
80
80
80
ENDCHAR
STARTCHAR icircumflex
ENCODING 238
SWIDTH 141 0
DWIDTH 5 0
BBX 5 23 0 0
BITMAP
20
50
48
88
00
00
20
20
20
20
20
20
20
20
20
20
20
20
20
20
20
20
20
ENDCHAR
STARTCHAR idieresis
ENCODING 239
SWIDTH 141 0
DWIDTH 5 0
BBX 5 23 0 0
BITMAP
88
88
88
88
00
00
20
20
20
20
20
20
20
20
20
20
20
20
20
20
20
20
20
ENDCHAR
STARTCHAR eth
ENCODING 240
SWIDTH 319 0
DWIDTH 11 0
BBX 9 25 1 0
BITMAP
2000
1000
0800
0B80
1C00
2200
0200
0100
1D00
2300
4100
4080
4080
4080
8080
8080
8080
8080
8080
4080
4080
4100
4100
2200
1C00
ENDCHAR
STARTCHAR ntilde
ENCODING 241
SWIDTH 307 0
DWIDTH 11 0
BBX 7 22 2 0
BITMAP
72
8C
00
00
00
BC
C2
82
82
82
82
82
82
82
82
82
82
82
82
82
82
82
ENDCHAR
STARTCHAR ograve
ENCODING 242
SWIDTH 309 0
DWIDTH 11 0
BBX 9 23 1 0
BITMAP
2000
1000
0800
0800
0000
0000
1C00
2200
4100
4100
4100
4080
8080
8080
8080
8080
8080
4080
4100
4100
4100
2200
1C00
ENDCHAR
STARTCHAR oacute
ENCODING 243
SWIDTH 309 0
DWIDTH 11 0
BBX 9 23 1 0
BITMAP
0200
0400
0400
0800
0000
0000
1C00
2200
4100
4100
4100
4080
8080
8080
8080
8080
8080
4080
4100
4100
4100
2200
1C00
ENDCHAR
STARTCHAR ocircumflex
ENCODING 244
SWIDTH 309 0
DWIDTH 11 0
BBX 9 23 1 0
BITMAP
0800
1400
1200
2200
0000
0000
1C00
2200
4100
4100
4100
4080
8080
8080
8080
8080
8080
4080
4100
4100
4100
2200
1C00
ENDCHAR
STARTCHAR otilde
ENCODING 245
SWIDTH 309 0
DWIDTH 11 0
BBX 9 22 1 0
BITMAP
3900
4600
0000
0000
0000
1C00
2200
4100
4100
4100
4080
8080
8080
8080
8080
8080
4080
4100
4100
4100
2200
1C00
ENDCHAR
STARTCHAR odieresis
ENCODING 246
SWIDTH 309 0
DWIDTH 11 0
BBX 9 23 1 0
BITMAP
2200
2200
2200
2200
0000
0000
1C00
2200
4100
4100
4100
4080
8080
8080
8080
8080
8080
4080
4100
4100
4100
2200
1C00
ENDCHAR
STARTCHAR divide
ENCODING 247
SWIDTH 577 0
DWIDTH 21 0
BBX 17 17 2 0
BITMAP
008000
008000
008000
008000
000000
000000
000000
000000
FFFF80
000000
000000
000000
000000
008000
008000
008000
008000
ENDCHAR
STARTCHAR oslash
ENCODING 248
SWIDTH 309 0
DWIDTH 11 0
BBX 9 17 1 0
BITMAP
1D00
2300
4100
4300
4300
4480
8480
8480
8880
8880
9080
5080
6100
6100
4100
6200
5C00
ENDCHAR
STARTCHAR ugrave
ENCODING 249
SWIDTH 307 0
DWIDTH 11 0
BBX 7 23 2 0
BITMAP
40
20
10
10
00
00
82
82
82
82
82
82
82
82
82
82
82
82
82
82
82
86
7A
ENDCHAR
STARTCHAR uacute
ENCODING 250
SWIDTH 307 0
DWIDTH 11 0
BBX 7 23 2 0
BITMAP
04
08
08
10
00
00
82
82
82
82
82
82
82
82
82
82
82
82
82
82
82
86
7A
ENDCHAR
STARTCHAR ucircumflex
ENCODING 251
SWIDTH 307 0
DWIDTH 11 0
BBX 7 23 2 0
BITMAP
10
28
24
44
00
00
82
82
82
82
82
82
82
82
82
82
82
82
82
82
82
86
7A
ENDCHAR
STARTCHAR udieresis
ENCODING 252
SWIDTH 307 0
DWIDTH 11 0
BBX 7 23 2 0
BITMAP
44
44
44
44
00
00
82
82
82
82
82
82
82
82
82
82
82
82
82
82
82
86
7A
ENDCHAR
STARTCHAR yacute
ENCODING 253
SWIDTH 285 0
DWIDTH 10 0
BBX 10 30 0 -7
BITMAP
0200
0200
0400
0400
0000
0000
4040
4080
4080
4080
2080
2100
2100
2100
1100
1200
1200
1200
0A00
0C00
0C00
0C00
0400
0400
0800
0800
0800
1000
1000
E000
ENDCHAR
STARTCHAR thorn
ENCODING 254
SWIDTH 299 0
DWIDTH 11 0
BBX 9 32 0 -7
BITMAP
2000
2000
2000
2000
2000
2000
2000
2000
3E00
6100
A080
2080
2080
2080
2080
2080
2080
2080
2080
2080
2080
2080
2080
3100
2E00
2000
2000
2000
2000
2000
2000
2000
ENDCHAR
STARTCHAR ydieresis
ENCODING 255
SWIDTH 285 0
DWIDTH 10 0
BBX 10 30 0 -7
BITMAP
1200
1200
1200
1200
0000
0000
4040
4080
4080
4080
2080
2100
2100
2100
1100
1200
1200
1200
0A00
0C00
0C00
0C00
0400
0400
0800
0800
0800
1000
1000
E000
ENDCHAR
STARTCHAR dotlessi
ENCODING 305
SWIDTH 141 0
DWIDTH 5 0
BBX 1 17 2 0
BITMAP
80
80
80
80
80
80
80
80
80
80
80
80
80
80
80
80
80
ENDCHAR
STARTCHAR OE
ENCODING 338
SWIDTH 505 0
DWIDTH 18 0
BBX 16 25 1 0
BITMAP
07FF
1880
1080
2080
4080
4080
4080
4080
4080
8080
8080
80FE
8080
8080
8080
8080
4080
4080
4080
4080
2080
2080
1080
1880
07FF
ENDCHAR
STARTCHAR oe
ENCODING 339
SWIDTH 492 0
DWIDTH 18 0
BBX 16 17 1 0
BITMAP
1C3C
2244
4142
4182
4181
4081
80FF
8080
8080
8080
8080
4080
4180
4141
4142
2222
1C1C
ENDCHAR
STARTCHAR Wcircumflex
ENCODING 372
SWIDTH 534 0
DWIDTH 19 0
BBX 16 30 2 0
BITMAP
0100
0280
0240
0440
0000
8001
8001
8001
8001
8002
8002
8002
8002
8182
8282
8282
8282
8282
8282
8282
4102
4102
4182
4284
4444
4424
4824
5014
600C
4004
ENDCHAR
STARTCHAR wcircumflex
ENCODING 373
SWIDTH 396 0
DWIDTH 14 0
BBX 12 23 1 0
BITMAP
0200
0600
0900
1080
0000
0000
8010
8010
8010
8010
8610
8610
8510
4510
4610
4620
4620
4620
4520
4920
50A0
6060
6020
ENDCHAR
STARTCHAR Ycircumflex
ENCODING 374
SWIDTH 370 0
DWIDTH 13 0
BBX 13 30 0 0
BITMAP
0200
0500
0480
0880
0000
8008
4008
4010
2010
2020
1020
1040
1040
0880
0880
0480
0500
0300
0200
0200
0200
0200
0200
0200
0200
0200
0200
0200
0200
0200
ENDCHAR
STARTCHAR ycircumflex
ENCODING 375
SWIDTH 285 0
DWIDTH 10 0
BBX 10 30 0 -7
BITMAP
0400
0C00
1200
2100
0000
0000
4040
4080
4080
4080
2080
2100
2100
2100
1100
1200
1200
1200
0A00
0C00
0C00
0C00
0400
0400
0800
0800
0800
1000
1000
E000
ENDCHAR
STARTCHAR Ydieresis
ENCODING 376
SWIDTH 370 0
DWIDTH 13 0
BBX 13 30 0 0
BITMAP
0480
0480
0480
0480
0000
8008
4008
4010
2010
2020
1020
1040
1040
0880
0880
0480
0500
0300
0200
0200
0200
0200
0200
0200
0200
0200
0200
0200
0200
0200
ENDCHAR
STARTCHAR uni0237
ENCODING 567
SWIDTH 141 0
DWIDTH 5 0
BBX 6 24 -3 -7
BITMAP
04
04
04
04
04
04
04
04
04
04
04
04
04
04
04
04
04
04
04
04
04
08
18
E0
ENDCHAR
STARTCHAR circumflex
ENCODING 710
SWIDTH 280 0
DWIDTH 10 0
BBX 6 4 2 19
BITMAP
30
30
48
84
ENDCHAR
STARTCHAR ring
ENCODING 730
SWIDTH 238 0
DWIDTH 9 0
BBX 4 5 2 19
BITMAP
70
90
90
90
60
ENDCHAR
STARTCHAR tilde
ENCODING 732
SWIDTH 301 0
DWIDTH 11 0
BBX 7 2 2 20
BITMAP
62
9C
ENDCHAR
STARTCHAR gravecomb
ENCODING 768
SWIDTH 0 0
DWIDTH 0 0
BBX 3 4 2 19
BITMAP
80
40
40
20
ENDCHAR
STARTCHAR acutecomb
ENCODING 769
SWIDTH 0 0
DWIDTH 0 0
BBX 3 4 2 19
BITMAP
20
40
40
80
ENDCHAR
STARTCHAR uni0302
ENCODING 770
SWIDTH 0 0
DWIDTH 0 0
BBX 6 4 2 19
BITMAP
30
30
48
84
ENDCHAR
STARTCHAR tildecomb
ENCODING 771
SWIDTH 0 0
DWIDTH 0 0
BBX 7 2 2 20
BITMAP
62
9C
ENDCHAR
STARTCHAR uni0307
ENCODING 775
SWIDTH 0 0
DWIDTH 0 0
BBX 1 4 2 19
BITMAP
80
80
80
80
ENDCHAR
STARTCHAR uni0308
ENCODING 776
SWIDTH 0 0
DWIDTH 0 0
BBX 5 4 2 19
BITMAP
88
88
88
88
ENDCHAR
STARTCHAR uni030A
ENCODING 778
SWIDTH 0 0
DWIDTH 0 0
BBX 4 5 2 19
BITMAP
70
90
90
90
60
ENDCHAR
STARTCHAR uni0327
ENCODING 807
SWIDTH 0 0
DWIDTH 0 0
BBX 4 6 2 -6
BITMAP
20
60
90
10
90
60
ENDCHAR
STARTCHAR Wgrave
ENCODING 7808
SWIDTH 534 0
DWIDTH 19 0
BBX 16 30 2 0
BITMAP
0400
0200
0100
0100
0000
8001
8001
8001
8001
8002
8002
8002
8002
8182
8282
8282
8282
8282
8282
8282
4102
4102
4182
4284
4444
4424
4824
5014
600C
4004
ENDCHAR
STARTCHAR wgrave
ENCODING 7809
SWIDTH 396 0
DWIDTH 14 0
BBX 12 23 1 0
BITMAP
0800
0400
0400
0200
0000
0000
8010
8010
8010
8010
8610
8610
8510
4510
4610
4620
4620
4620
4520
4920
50A0
6060
6020
ENDCHAR
STARTCHAR Wacute
ENCODING 7810
SWIDTH 534 0
DWIDTH 19 0
BBX 16 30 2 0
BITMAP
0040
0080
0080
0100
0000
8001
8001
8001
8001
8002
8002
8002
8002
8182
8282
8282
8282
8282
8282
8282
4102
4102
4182
4284
4444
4424
4824
5014
600C
4004
ENDCHAR
STARTCHAR wacute
ENCODING 7811
SWIDTH 396 0
DWIDTH 14 0
BBX 12 23 1 0
BITMAP
0100
0100
0200
0600
0000
0000
8010
8010
8010
8010
8610
8610
8510
4510
4610
4620
4620
4620
4520
4920
50A0
6060
6020
ENDCHAR
STARTCHAR Wdieresis
ENCODING 7812
SWIDTH 534 0
DWIDTH 19 0
BBX 16 30 2 0
BITMAP
0440
0440
0440
0440
0000
8001
8001
8001
8001
8002
8002
8002
8002
8182
8282
8282
8282
8282
8282
8282
4102
4102
4182
4284
4444
4424
4824
5014
600C
4004
ENDCHAR
STARTCHAR wdieresis
ENCODING 7813
SWIDTH 396 0
DWIDTH 14 0
BBX 12 23 1 0
BITMAP
0900
0900
0900
0900
0000
0000
8010
8010
8010
8010
8610
8610
8510
4510
4610
4620
4620
4620
4520
4920
50A0
6060
6020
ENDCHAR
STARTCHAR uni1E9E
ENCODING 7838
SWIDTH 375 0
DWIDTH 14 0
BBX 10 25 2 0
BITMAP
3C00
4200
4100
8080
8080
8080
8080
8080
8080
8100
9D00
A300
9C80
8080
8080
8040
8040
8040
8040
8040
8080
8080
8100
8300
BC00
ENDCHAR
STARTCHAR Ygrave
ENCODING 7922
SWIDTH 370 0
DWIDTH 13 0
BBX 13 30 0 0
BITMAP
0800
0400
0200
0200
0000
8008
4008
4010
2010
2020
1020
1040
1040
0880
0880
0480
0500
0300
0200
0200
0200
0200
0200
0200
0200
0200
0200
0200
0200
0200
ENDCHAR
STARTCHAR ygrave
ENCODING 7923
SWIDTH 285 0
DWIDTH 10 0
BBX 10 30 0 -7
BITMAP
1000
0800
0800
0400
0000
0000
4040
4080
4080
4080
2080
2100
2100
2100
1100
1200
1200
1200
0A00
0C00
0C00
0C00
0400
0400
0800
0800
0800
1000
1000
E000
ENDCHAR
STARTCHAR endash
ENCODING 8211
SWIDTH 425 0
DWIDTH 15 0
BBX 13 1 1 8
BITMAP
FFF8
ENDCHAR
STARTCHAR emdash
ENCODING 8212
SWIDTH 770 0
DWIDTH 28 0
BBX 25 1 1 8
BITMAP
FFFFFF80
ENDCHAR
STARTCHAR quoteleft
ENCODING 8216
SWIDTH 145 0
DWIDTH 5 0
BBX 2 6 2 19
BITMAP
40
80
80
80
80
80
ENDCHAR
STARTCHAR quoteright
ENCODING 8217
SWIDTH 145 0
DWIDTH 5 0
BBX 2 6 1 18
BITMAP
40
40
40
40
40
C0
ENDCHAR
STARTCHAR quotesinglbase
ENCODING 8218
SWIDTH 145 0
DWIDTH 5 0
BBX 2 6 1 -3
BITMAP
40
40
40
40
40
80
ENDCHAR
STARTCHAR quotedblleft
ENCODING 8220
SWIDTH 219 0
DWIDTH 8 0
BBX 5 6 2 19
BITMAP
58
90
A0
A0
A0
A0
ENDCHAR
STARTCHAR quotedblright
ENCODING 8221
SWIDTH 219 0
DWIDTH 8 0
BBX 5 6 1 18
BITMAP
28
28
28
28
48
D0
ENDCHAR
STARTCHAR quotedblbase
ENCODING 8222
SWIDTH 219 0
DWIDTH 8 0
BBX 5 6 1 -3
BITMAP
48
48
48
48
48
B0
ENDCHAR
STARTCHAR bullet
ENCODING 8226
SWIDTH 355 0
DWIDTH 13 0
BBX 9 9 2 8
BITMAP
0800
3E00
7F00
FF00
FF80
FF80
7F00
7F00
3C00
ENDCHAR
STARTCHAR ellipsis
ENCODING 8230
SWIDTH 651 0
DWIDTH 23 0
BBX 18 4 3 0
BITMAP
808040
808040
808040
808040
ENDCHAR
STARTCHAR guilsinglleft
ENCODING 8249
SWIDTH 263 0
DWIDTH 9 0
BBX 7 14 1 3
BITMAP
02
04
08
18
10
20
40
C0
20
20
10
08
04
02
ENDCHAR
STARTCHAR guilsinglright
ENCODING 8250
SWIDTH 263 0
DWIDTH 9 0
BBX 7 14 1 4
BITMAP
80
40
20
10
08
04
02
02
04
08
10
20
40
80
ENDCHAR
STARTCHAR fraction
ENCODING 8260
SWIDTH 152 0
DWIDTH 5 0
BBX 13 25 -4 0
BITMAP
0008
0008
0010
0010
0020
0020
0040
0040
0080
0080
0100
0100
0200
0200
0400
0400
0800
0800
1000
1000
2000
2000
4000
4000
8000
ENDCHAR
STARTCHAR uni2074
ENCODING 8308
SWIDTH 247 0
DWIDTH 9 0
BBX 6 11 1 14
BITMAP
10
10
20
28
48
48
88
FC
08
08
08
ENDCHAR
STARTCHAR Euro
ENCODING 8364
SWIDTH 391 0
DWIDTH 14 0
BBX 13 25 0 0
BITMAP
01F0
0608
0800
0800
1000
1000
1000
1000
2000
2000
FF00
2000
2000
2000
FF00
2000
2000
1000
1000
1000
1000
0800
0800
0608
01F0
ENDCHAR
STARTCHAR trademark
ENCODING 8482
SWIDTH 506 0
DWIDTH 18 0
BBX 15 12 1 13
BITMAP
FC82
20C6
20BA
2092
20AA
209A
2092
209A
20AA
2092
2082
2082
ENDCHAR
STARTCHAR minus
ENCODING 8722
SWIDTH 557 0
DWIDTH 20 0
BBX 18 1 1 11
BITMAP
FFFFC0
ENDCHAR
STARTCHAR uni2215
ENCODING 8725
SWIDTH 259 0
DWIDTH 9 0
BBX 9 26 0 0
BITMAP
0080
0080
0080
0100
0100
0100
0200
0200
0200
0400
0400
0400
0800
0800
0800
1000
1000
1000
2000
2000
2000
4000
4000
4000
8000
8000
ENDCHAR
STARTCHAR .notdef
ENCODING -1
SWIDTH 500 0
DWIDTH 18 0
BBX 14 32 2 -7
BITMAP
FFFC
FFFC
C00C
C00C
C00C
C00C
C00C
C00C
C00C
C00C
C00C
C00C
C00C
C00C
C00C
C00C
C00C
C00C
C00C
C00C
C00C
C00C
C00C
C00C
C00C
C00C
C00C
C00C
C00C
C00C
FFFC
FFFC
ENDCHAR
STARTCHAR NULL
ENCODING -1
SWIDTH 600 0
DWIDTH 22 0
BBX 1 1 0 0
BITMAP
00
ENDCHAR
STARTCHAR acutecomb.case
ENCODING -1
SWIDTH 0 0
DWIDTH 0 0
BBX 3 4 2 26
BITMAP
20
40
40
80
ENDCHAR
STARTCHAR uni0302.case
ENCODING -1
SWIDTH 0 0
DWIDTH 0 0
BBX 5 4 2 26
BITMAP
20
50
48
88
ENDCHAR
STARTCHAR uni0308.case
ENCODING -1
SWIDTH 0 0
DWIDTH 0 0
BBX 4 4 2 26
BITMAP
90
90
90
90
ENDCHAR
STARTCHAR uni0307.case
ENCODING -1
SWIDTH 0 0
DWIDTH 0 0
BBX 1 4 2 26
BITMAP
80
80
80
80
ENDCHAR
STARTCHAR gravecomb.case
ENCODING -1
SWIDTH 0 0
DWIDTH 0 0
BBX 3 4 2 26
BITMAP
80
40
40
20
ENDCHAR
STARTCHAR uni030A.case
ENCODING -1
SWIDTH 0 0
DWIDTH 0 0
BBX 4 4 2 26
BITMAP
60
90
90
60
ENDCHAR
STARTCHAR tildecomb.case
ENCODING -1
SWIDTH 0 0
DWIDTH 0 0
BBX 6 2 2 27
BITMAP
64
9C
ENDCHAR
ENDFONT
